
        <svg width="400" height="600" xmlns="http://www.w3.org/2000/svg">
          <!-- Background with data visualization -->
          <rect width="400" height="600" fill="#0a0a0a"/>
          
          <!-- Floating data elements -->
          <circle cx="100" cy="100" r="15" fill="#4682B4" opacity="0.7" title="Cultural data point"/>
          <circle cx="300" cy="120" r="12" fill="#DAA520" opacity="0.7" title="Trend analysis"/>
          <circle cx="150" cy="80" r="10" fill="#2E8B57" opacity="0.7" title="Global insight"/>
          
          <!-- Dr. QLOO's holographic form -->
          <!-- Head with AI characteristics -->
          <circle cx="200" cy="200" r="50" fill="#4682B4" opacity="0.6" stroke="#87CEEB" stroke-width="2"/>
          
          <!-- AI eyes with data processing -->
          <rect x="180" y="185" width="8" height="8" fill="#00FFFF" opacity="0.8"/>
          <rect x="212" y="185" width="8" height="8" fill="#00FFFF" opacity="0.8"/>
          <rect x="196" y="190" width="8" height="8" fill="#00FFFF" opacity="0.6" title="Central processing"/>
          
          <!-- Warm smile indicator -->
          <path d="M175,220 Q200,235 225,220" stroke="#87CEEB" stroke-width="3" fill="none" opacity="0.8"/>
          
          <!-- Semi-transparent body with data streams -->
          <rect x="150" y="250" width="100" height="200" fill="#4682B4" opacity="0.3" rx="10"/>
          
          <!-- Data visualization elements -->
          <g opacity="0.7">
            <!-- Trend lines -->
            <path d="M160,280 Q200,270 240,280 Q220,300 200,290 Q180,300 160,280" 
                  stroke="#DAA520" stroke-width="2" fill="none" title="Trend analysis visualization"/>
            
            <!-- Cultural symbols (respectful) -->
            <circle cx="170" cy="320" r="5" fill="#2E8B57" title="Cultural data point"/>
            <circle cx="230" cy="340" r="5" fill="#2E8B57" title="Cultural data point"/>
            
            <!-- Data bars -->
            <rect x="165" y="360" width="15" height="30" fill="#87CEEB" opacity="0.6"/>
            <rect x="185" y="350" width="15" height="40" fill="#87CEEB" opacity="0.6"/>
            <rect x="205" y="355" width="15" height="35" fill="#87CEEB" opacity="0.6"/>
            <rect x="225" y="345" width="15" height="45" fill="#87CEEB" opacity="0.6"/>
          </g>
          
          <!-- Floating cultural elements -->
          <text x="120" y="500" font-family="Arial" font-size="10" fill="#87CEEB" opacity="0.8">
            Global Cultural Intelligence
          </text>
          <text x="120" y="520" font-family="Arial" font-size="10" fill="#87CEEB" opacity="0.8">
            Real-time Trend Analysis
          </text>
          
          <!-- Accessibility annotations -->
          <text x="20" y="550" font-family="Arial" font-size="11" fill="#87CEEB">
            Audio: Gentle data processing sounds with cultural narration
          </text>
          <text x="20" y="570" font-family="Arial" font-size="11" fill="#87CEEB">
            Tactile: Data points described with cultural context
          </text>
        </svg>
        