
        <svg width="400" height="600" xmlns="http://www.w3.org/2000/svg">
          <!-- Background with cultural elements -->
          <rect width="400" height="600" fill="#f8f5f0"/>
          
          <!-- World map silhouette -->
          <g opacity="0.1">
            <path d="M50,100 Q200,80 350,100 Q300,200 250,250 Q150,200 50,100" fill="#8B4513"/>
          </g>
          
          <!-- Sophia's figure -->
          <!-- Head -->
          <circle cx="200" cy="150" r="40" fill="#D2B48C" stroke="#8B4513" stroke-width="2"/>
          
          <!-- Eyes with warmth and intelligence -->
          <circle cx="185" cy="140" r="3" fill="#2F4F4F"/>
          <circle cx="215" cy="140" r="3" fill="#2F4F4F"/>
          <circle cx="186" cy="139" r="1" fill="white"/>
          <circle cx="216" cy="139" r="1" fill="white"/>
          
          <!-- Warm smile -->
          <path d="M185,160 Q200,170 215,160" stroke="#8B4513" stroke-width="2" fill="none"/>
          
          <!-- Hair with cultural accessories -->
          <path d="M160,120 Q200,100 240,120 Q230,180 200,180 Q170,180 160,120" fill="#4A4A4A"/>
          <circle cx="175" cy="130" r="3" fill="#DAA520" title="Cultural hair accessory"/>
          <circle cx="225" cy="130" r="3" fill="#DAA520" title="Cultural hair accessory"/>
          
          <!-- Kimono-inspired jacket -->
          <path d="M160,200 Q200,190 240,200 L250,400 Q200,410 150,400 Z" fill="#2F4F4F" opacity="0.8"/>
          <path d="M170,210 Q200,200 230,210 L235,380 Q200,385 165,380 Z" fill="#4682B4" opacity="0.6"/>
          
          <!-- Cultural fusion elements -->
          <rect x="180" y="220" width="40" height="3" fill="#DAA520" title="Cultural pattern element"/>
          <rect x="180" y="240" width="40" height="3" fill="#DAA520" title="Cultural pattern element"/>
          
          <!-- Structured base underneath -->
          <rect x="175" y="350" width="50" height="100" fill="#2F4F4F" rx="5"/>
          
          <!-- Text annotations for accessibility -->
          <text x="50" y="500" font-family="Arial" font-size="12" fill="#2F4F4F">
            Tactile: Smooth silk blend with subtle texture variations
          </text>
          <text x="50" y="520" font-family="Arial" font-size="12" fill="#2F4F4F">
            Sound: Gentle fabric whisper with cultural ambient audio
          </text>
          <text x="50" y="540" font-family="Arial" font-size="12" fill="#2F4F4F">
            Feel: Warm, comforting weight with structured support
          </text>
          <text x="50" y="560" font-family="Arial" font-size="12" fill="#2F4F4F">
            Cultural Context: Respectful fusion with educational background
          </text>
        </svg>
        